HIERARCHY
ROOT Pelvis
{
	OFFSET 0.000000 0.000000 0.000000
	CHANNELS 6 Xposition Yposition Zposition Xrotation Yrotation Zrotation
	JOINT LeftUpLeg_virtual
	{
		OFFSET 0.000000 0.000000 0.000000
		CHANNELS 3 Xrotation Yrotation Zrotation
		JOINT LeftUpLeg
		{
			OFFSET 18.735201 -5.666702 -4.541200
			CHANNELS 3 Xrotation Yrotation Zrotation
			JOINT LeftLeg
			{
				OFFSET -0.021200 -31.938179 0.493100
				CHANNELS 3 Xrotation Yrotation Zrotation
				JOINT LeftFoot
				{
					OFFSET 0.021200 -31.938179 -4.336299
					CHANNELS 3 Xrotation Yrotation Zrotation
					JOINT LeftToeBase
					{
						OFFSET 0.943001 -26.722000 15.023500
						CHANNELS 3 Xrotation Yrotation Zrotation
						End Site
						{
							OFFSET 0 0 0
						}
					}
				}
			}
		}
	}
	JOINT RightUpLeg_virtual
	{
		OFFSET 0.000000 0.000000 0.000000
		CHANNELS 3 Xrotation Yrotation Zrotation
		JOINT RightUpLeg
		{
			OFFSET -18.735201 -5.666702 -4.541200
			CHANNELS 3 Xrotation Yrotation Zrotation
			JOINT RightLeg
			{
				OFFSET 0.018946 -31.938133 0.493100
				CHANNELS 3 Xrotation Yrotation Zrotation
				JOINT RightFoot
				{
					OFFSET -0.018946 -31.938126 -4.336299
					CHANNELS 3 Xrotation Yrotation Zrotation
					JOINT RightToeBase
					{
						OFFSET -0.943001 -26.722004 15.023500
						CHANNELS 3 Xrotation Yrotation Zrotation
						End Site
						{
							OFFSET 0 0 0
						}
					}
				}
			}
		}
	}
	JOINT Hips_virtual
	{
		OFFSET 0.000000 0.000000 0.000000
		CHANNELS 3 Xrotation Yrotation Zrotation
		JOINT Hips
		{
			OFFSET -0.000000 -0.000000 -0.000000
			CHANNELS 3 Xrotation Yrotation Zrotation
			JOINT Spine
			{
				OFFSET 0.000000 10.199997 -0.299500
				CHANNELS 3 Xrotation Yrotation Zrotation
				JOINT Spine1
				{
					OFFSET 0.000000 11.900002 -1.516600
					CHANNELS 3 Xrotation Yrotation Zrotation
					JOINT Spine2
					{
						OFFSET 0.000000 13.600006 -2.842500
						CHANNELS 3 Xrotation Yrotation Zrotation
						JOINT Neck_virtual
						{
							OFFSET 0.000000 0.000000 0.000000
							CHANNELS 3 Xrotation Yrotation Zrotation
							JOINT Neck
							{
								OFFSET 0.000000 9.624100 -2.890100
								CHANNELS 3 Xrotation Yrotation Zrotation
								JOINT Head
								{
									OFFSET 0.000000 14.068802 -1.351900
									CHANNELS 3 Xrotation Yrotation Zrotation
									End Site
									{
										OFFSET 0 0 0
									}
								}
							}
						}
						JOINT LeftShoulder_virtual
						{
							OFFSET 0.000000 0.000000 0.000000
							CHANNELS 3 Xrotation Yrotation Zrotation
							JOINT LeftShoulder
							{
								OFFSET 15.263000 10.923401 -0.547700
								CHANNELS 3 Xrotation Yrotation Zrotation
								JOINT LeftArm
								{
									OFFSET 25.438599 -2.830597 -13.032500
									CHANNELS 3 Xrotation Yrotation Zrotation
									JOINT LeftForeArm
									{
										OFFSET 29.960503 0.000000 0.000000
										CHANNELS 3 Xrotation Yrotation Zrotation
										JOINT LeftHand
										{
											OFFSET 27.849251 0.000000 0.000000
											CHANNELS 3 Xrotation Yrotation Zrotation
											End Site
											{
												OFFSET 0 0 0
											}
										}
									}
								}
							}
						}
						JOINT RightShoulder_virtual
						{
							OFFSET 0.000000 0.000000 0.000000
							CHANNELS 3 Xrotation Yrotation Zrotation
							JOINT RightShoulder
							{
								OFFSET -15.263000 10.923401 -0.547700
								CHANNELS 3 Xrotation Yrotation Zrotation
								JOINT RightArm
								{
									OFFSET -25.438599 -2.830597 -13.032500
									CHANNELS 3 Xrotation Yrotation Zrotation
									JOINT RightForeArm
									{
										OFFSET -29.960503 0.000000 0.000000
										CHANNELS 3 Xrotation Yrotation Zrotation
										JOINT RightHand
										{
											OFFSET -27.849251 0.000000 0.000000
											CHANNELS 3 Xrotation Yrotation Zrotation
											End Site
											{
												OFFSET 0 0 0
											}
										}
									}
								}
							}
						}
					}
				}
			}
		}
	}
}
MOTION
Frames: 4
Frame Time: 0.03333333
-10.377196 128.121460 -5.171940 0.000000 0.000000 0.000000 5.290504 -23.849737 1.806926 -132.159844 -30.530187 34.531343 124.278270 -25.746210 0.966538 21.794980 -20.151003 -30.725872 0.000000 0.000000 0.000000 4.024385 -21.764558 -0.862557 -103.625588 37.656049 -51.450517 138.009983 21.916532 -12.194244 14.583277 22.469232 39.857945 0.000000 0.000000 0.000000 2.662998 -20.086118 0.185184 3.593077 0.264656 -0.332743 31.569722 5.534721 0.728492 7.767122 0.969447 0.582857 0.000000 0.000000 0.000000 5.715622 1.435817 0.571579 1.512173 0.805467 0.012955 0.000000 0.000000 0.000000 6.798859 1.511588 0.330057 0.676013 -3.683753 7.269049 -40.517655 24.317125 20.359848 -0.946734 -16.464856 -1.333754 0.000000 0.000000 0.000000 6.001472 1.731656 0.858982 -3.157684 -3.933054 -30.189778 -50.538229 12.309302 -4.422994 -2.725331 17.373071 -0.051071 0.000000 0.000000 0.000000 
-9.692848 126.407234 -4.925617 0.000000 0.000000 0.000000 4.397151 -22.558108 1.196089 -133.695257 -27.866820 31.011391 123.366221 -25.759078 -1.067227 25.365024 -17.680679 -20.749696 0.000000 0.000000 0.000000 2.593960 -19.881328 -1.990100 -97.515082 37.019451 -53.370542 137.682134 22.160926 -10.878628 8.451919 18.287189 35.914227 0.000000 0.000000 0.000000 1.464168 -20.158207 -0.467539 3.118323 0.146084 -0.406915 31.436755 6.593817 0.770296 7.758059 1.572107 0.554508 0.000000 0.000000 0.000000 5.910019 1.809016 0.541645 1.791774 0.628042 0.198076 0.000000 0.000000 0.000000 6.736422 1.921752 0.195675 0.570561 -3.308409 7.521179 -41.216807 23.057085 23.599542 -1.173904 -14.513061 -1.418873 0.000000 0.000000 0.000000 6.188793 2.133589 0.755282 -2.721782 -2.763601 -32.405471 -45.420089 8.684836 -12.262278 -1.992067 17.280712 -0.430257 0.000000 0.000000 0.000000 
-8.793962 123.628036 -5.114346 0.000000 0.000000 0.000000 3.374017 -20.796867 0.286493 -133.798201 -23.987730 27.420522 122.389627 -23.851842 -3.654345 26.022862 -13.390687 -10.330001 0.000000 0.000000 0.000000 1.576791 -18.065768 -3.062984 -90.485424 34.023112 -52.760790 135.650986 22.023364 -8.262691 -0.400851 14.168311 33.211064 0.000000 0.000000 0.000000 0.999139 -19.726510 -0.983918 2.199796 -0.076713 -0.700678 30.835394 7.295130 0.400363 7.459179 1.956713 0.567569 0.000000 0.000000 0.000000 5.738010 2.067053 0.514922 1.925063 0.503709 0.434962 0.000000 0.000000 0.000000 6.364074 2.226891 0.108403 0.189991 -2.301427 7.653127 -42.090033 21.395037 25.270670 -1.202559 -13.528884 -1.355052 0.000000 0.000000 0.000000 5.942959 2.454105 0.703268 -2.024257 -1.181350 -32.535685 -41.009859 4.350393 -17.485607 -1.355729 20.948327 -0.604579 0.000000 0.000000 0.000000 
-7.772271 119.572769 -4.967846 0.000000 0.000000 0.000000 2.640404 -18.910581 -0.543837 -130.962826 -19.547655 23.812049 121.437471 -20.672887 -5.051541 22.985663 -9.408213 -1.120485 0.000000 0.000000 0.000000 1.320223 -16.736212 -3.641845 -84.163162 30.317014 -48.289052 131.722548 21.642586 -5.472097 -3.950224 13.689729 33.316362 0.000000 0.000000 0.000000 0.919060 -18.762682 -1.259824 1.360536 -0.124293 -0.673277 29.635979 7.566477 -0.311147 6.918516 2.124999 0.625053 0.000000 0.000000 0.000000 5.172099 2.230765 0.569838 1.966767 0.437110 0.653803 0.000000 0.000000 0.000000 5.671089 2.422244 0.109242 -0.346337 -0.774524 7.452466 -42.411909 20.724899 25.486938 -0.944754 -13.454212 -1.170348 0.000000 0.000000 0.000000 5.318097 2.698937 0.760371 -1.326482 0.338885 -30.724711 -37.936069 -0.979998 -19.978623 -0.743165 26.456214 -0.664735 0.000000 0.000000 0.000000 
